<?xml version="1.0" encoding="utf-8"?>
<!-- Generator: Adobe Illustrator 27.6.1, SVG Export Plug-In . SVG Version: 6.00 Build 0)  -->
<svg version="1.1" id="Layer_1" xmlns="http://www.w3.org/2000/svg" xmlns:xlink="http://www.w3.org/1999/xlink" x="450px" y="450px"
	 viewBox="0 0 554.44 475.72" style="enable-background:new 0 0 554.44 475.72;" xml:space="preserve">
<style type="text/css">
	.st0{fill:url(#SVGID_1_);}
</style>
<g>
	<linearGradient id="SVGID_1_" gradientUnits="userSpaceOnUse" x1="277.221" y1="475.7186" x2="277.221" y2="6.6667">
		<stop  offset="0" style="stop-color:#79CEDA"/>
		<stop  offset="1" style="stop-color:#AE57A2"/>
	</linearGradient>
	<path class="st0" d="M0,428.36C0,288,0,147.62,0,6.67c15.45,8.92,30.52,17.58,45.56,26.29c42.08,24.35,84.35,48.38,126.16,73.2
		c33.54,19.91,67.41,39.27,101.13,58.86c28.55,16.59,57.22,32.96,85.95,49.23c4.54,2.57,3.45,3.5-0.2,5.61
		c-22.96,13.32-45.69,27.02-68.76,40.14c-11.67,6.64-9.68,7.08,0.03,12.8c57.07,33.68,114.05,67.53,171.09,101.25
		c2.97,1.76,6.35,5.48,9.5,3.52c3.02-1.88,1.5-6.63,1.5-10.12c0.04-102.48,0.06-204.96-0.04-307.44c0-4.09,1.25-6.38,4.89-8.46
		c25.34-14.53,50.53-29.33,75.77-44.03c0.46-0.27,1.05-0.32,1.86-0.54c0,140.66,0,281.05,0,422.13
		c-20.33-11.93-40.11-23.54-59.9-35.14c-6-3.52-12.11-6.86-18.02-10.52c-2.74-1.7-3.82-2.67-3.79,1.91
		c0.19,28.1,0.04,56.21,0.03,84.31c0,7.25,0,7.33-6.31,3.68c-61.72-35.65-123.44-71.31-185.1-107.06c-2.88-1.67-4.98-2.09-8.05-0.3
		c-52,30.24-104.07,60.34-156.12,90.48c-9.96,5.77-20.02,11.38-29.81,17.43c-4.43,2.74-5.45,2.03-5.42-3.06
		c0.15-25.52,0.05-51.04,0.05-76.56c0-12.81-0.05-12.92-11.11-6.49c-22.32,12.98-44.56,26.1-66.83,39.16
		C2.9,427.63,1.92,428.8,0,428.36z M82.48,266.23c0.02,0,0.04,0,0.06,0c0,35.46-0.03,70.92,0.02,106.38
		c0.01,7.44,0.44,7.64,6.67,4.01c9.11-5.31,18.22-10.63,27.29-16c50.83-30.1,102.35-59.03,152.67-90c9.47-5.83,9.49-5.78-0.68-11.66
		c-58.83-34.04-117.65-68.08-176.47-102.13c-8.84-5.12-9.55-4.78-9.56,5.41C82.45,196.9,82.48,231.56,82.48,266.23z"/>
</g>
</svg>
